#Comment line ignore any data following # character 
#Hierarchical Translation and Rotation (.htr) file 
[Header]	
#Header keywords are followed by a single value 
FileType HTR		#Single word string
DataType HTRS		#Translation followed by rotation and scale data
FileVersion 1		#integer
NumSegments 64		#integer
NumFrames 3		#integer
DataFrameRate 30		#integer, data frame rate in this file
EulerRotationOrder ZYX
CalibrationUnits mm
RotationUnits Degrees
GlobalAxisofGravity Y
BoneLengthAxis Y
ScaleFactor 1.00
[SegmentNames&Hierarchy]
#CHILD	PARENT
Pinger_Root GLOBAL
Pelvis Pinger_Root
L_Hip Pelvis
R_Hip Pelvis
Rear_Leg01 Pelvis
Spine1 Pelvis
L_Leg01 L_Hip
L_Leg02 L_Leg01
L_Leg03 L_Leg02
L_Foot L_Leg03
L_Toe1_01 L_Foot
L_Toe2_01 L_Foot
L_Toe3_01 L_Foot
planeAlignerLeft L_Foot
L_Toe1_02 L_Toe1_01
L_Toe1_03 L_Toe1_02
L_Toe2_02 L_Toe2_01
L_Toe2_03 L_Toe2_02
L_Toe3_02 L_Toe3_01
L_Toe3_03 L_Toe3_02
planeLockWeightLeft planeAlignerLeft
R_Leg01 R_Hip
R_Leg02 R_Leg01
R_Leg03 R_Leg02
R_Foot R_Leg03
planeAlignerRight R_Foot
R_Toe1_01 R_Foot
R_Toe2_01 R_Foot
R_Toe3_01 R_Foot
planeLockWeightRight planeAlignerRight
R_Toe1_02 R_Toe1_01
R_Toe1_03 R_Toe1_02
R_Toe2_02 R_Toe2_01
R_Toe2_03 R_Toe2_02
R_Toe3_02 R_Toe3_01
R_Toe3_03 R_Toe3_02
Rear_Leg02 Rear_Leg01
Rear_Leg03 Rear_Leg02
Rear_Leg04 Rear_Leg03
Rear_Foot Rear_Leg04
planeAlignerCenter Rear_Foot
Rear_Toe1_01 Rear_Foot
Rear_Toe2_01 Rear_Foot
Rear_Toe3_01 Rear_Foot
planeLockWeightCenter planeAlignerCenter
Rear_Toe1_02 Rear_Toe1_01
Rear_Toe1_03 Rear_Toe1_02
Rear_Toe2_02 Rear_Toe2_01
Rear_Toe2_03 Rear_Toe2_02
Rear_Toe3_02 Rear_Toe3_01
Rear_Toe3_03 Rear_Toe3_02
Back_Bone Spine1
Head Spine1
Motor_Bone Back_Bone
Ping_Mechanism Back_Bone
BN_LookIK Head
bottomMouth Head
L_Mouth01 Head
L_mouthFront Head
mouthGun Head
R_Mouth01 Head
R_mouthFront Head
TopMouth Head
weapon_bone Head
[BasePosition]
#SegmentName Tx, Ty, Tz, Rx, Ry, Rz, BoneLength
Pinger_Root 0.000000 0.000000 0.000000 -90.000000 0.000000 0.000000 10.000000 
Pelvis 0.000000 0.000000 0.000000 0.000000 0.000000 0.000000 10.000000 
L_Hip 0.000000 0.000000 0.000000 0.000000 0.000000 0.000000 10.000000 
R_Hip 0.000000 0.000000 0.000000 0.000000 0.000000 0.000000 10.000000 
Rear_Leg01 0.000000 0.000000 0.000000 0.000000 0.000000 0.000000 10.000000 
Spine1 0.000000 0.000000 0.000000 0.000000 0.000000 0.000000 10.000000 
L_Leg01 0.000000 0.000000 0.000000 0.000000 0.000000 0.000000 10.000000 
L_Leg02 0.000000 0.000000 0.000000 0.000000 0.000000 0.000000 10.000000 
L_Leg03 0.000000 0.000000 0.000000 0.000000 0.000000 0.000000 10.000000 
L_Foot 0.000000 0.000000 0.000000 0.000000 0.000000 0.000000 10.000000 
L_Toe1_01 0.000000 0.000000 0.000000 0.000000 0.000000 0.000000 10.000000 
L_Toe2_01 0.000000 0.000000 0.000000 0.000000 0.000000 0.000000 10.000000 
L_Toe3_01 0.000000 0.000000 0.000000 0.000000 0.000000 0.000000 10.000000 
planeAlignerLeft 0.000000 0.000000 0.000000 0.000000 0.000000 0.000000 10.000000 
L_Toe1_02 0.000000 0.000000 0.000000 0.000000 0.000000 0.000000 10.000000 
L_Toe1_03 0.000000 0.000000 0.000000 0.000000 0.000000 0.000000 10.000000 
L_Toe2_02 0.000000 0.000000 0.000000 0.000000 0.000000 0.000000 10.000000 
L_Toe2_03 0.000000 0.000000 0.000000 0.000000 0.000000 0.000000 10.000000 
L_Toe3_02 0.000000 0.000000 0.000000 0.000000 0.000000 0.000000 10.000000 
L_Toe3_03 0.000000 0.000000 0.000000 0.000000 0.000000 0.000000 10.000000 
planeLockWeightLeft 0.000000 0.000000 0.000000 0.000000 0.000000 0.000000 10.000000 
R_Leg01 0.000000 0.000000 0.000000 0.000000 0.000000 0.000000 10.000000 
R_Leg02 0.000000 0.000000 0.000000 0.000000 0.000000 0.000000 10.000000 
R_Leg03 0.000000 0.000000 0.000000 0.000000 0.000000 0.000000 10.000000 
R_Foot 0.000000 0.000000 0.000000 0.000000 0.000000 0.000000 10.000000 
planeAlignerRight 0.000000 0.000000 0.000000 0.000000 0.000000 0.000000 10.000000 
R_Toe1_01 0.000000 0.000000 0.000000 0.000000 0.000000 0.000000 10.000000 
R_Toe2_01 0.000000 0.000000 0.000000 0.000000 0.000000 0.000000 10.000000 
R_Toe3_01 0.000000 0.000000 0.000000 0.000000 0.000000 0.000000 10.000000 
planeLockWeightRight 0.000000 0.000000 0.000000 0.000000 0.000000 0.000000 10.000000 
R_Toe1_02 0.000000 0.000000 0.000000 0.000000 0.000000 0.000000 10.000000 
R_Toe1_03 0.000000 0.000000 0.000000 0.000000 0.000000 0.000000 10.000000 
R_Toe2_02 0.000000 0.000000 0.000000 0.000000 0.000000 0.000000 10.000000 
R_Toe2_03 0.000000 0.000000 0.000000 0.000000 0.000000 0.000000 10.000000 
R_Toe3_02 0.000000 0.000000 0.000000 0.000000 0.000000 0.000000 10.000000 
R_Toe3_03 0.000000 0.000000 0.000000 0.000000 0.000000 0.000000 10.000000 
Rear_Leg02 0.000000 0.000000 0.000000 0.000000 0.000000 0.000000 10.000000 
Rear_Leg03 0.000000 0.000000 0.000000 0.000000 0.000000 0.000000 10.000000 
Rear_Leg04 0.000000 0.000000 0.000000 0.000000 0.000000 0.000000 10.000000 
Rear_Foot 0.000000 0.000000 0.000000 0.000000 0.000000 0.000000 10.000000 
planeAlignerCenter 0.000000 0.000000 0.000000 0.000000 0.000000 0.000000 10.000000 
Rear_Toe1_01 0.000000 0.000000 0.000000 0.000000 0.000000 0.000000 10.000000 
Rear_Toe2_01 0.000000 0.000000 0.000000 0.000000 0.000000 0.000000 10.000000 
Rear_Toe3_01 0.000000 0.000000 0.000000 0.000000 0.000000 0.000000 10.000000 
planeLockWeightCenter 0.000000 0.000000 0.000000 0.000000 0.000000 0.000000 10.000000 
Rear_Toe1_02 0.000000 0.000000 0.000000 0.000000 0.000000 0.000000 10.000000 
Rear_Toe1_03 0.000000 0.000000 0.000000 0.000000 0.000000 0.000000 10.000000 
Rear_Toe2_02 0.000000 0.000000 0.000000 0.000000 0.000000 0.000000 10.000000 
Rear_Toe2_03 0.000000 0.000000 0.000000 0.000000 0.000000 0.000000 10.000000 
Rear_Toe3_02 0.000000 0.000000 0.000000 0.000000 0.000000 0.000000 10.000000 
Rear_Toe3_03 0.000000 0.000000 0.000000 0.000000 0.000000 0.000000 10.000000 
Back_Bone 0.000000 0.000000 0.000000 0.000000 0.000000 0.000000 10.000000 
Head 0.000000 0.000000 0.000000 0.000000 0.000000 0.000000 10.000000 
Motor_Bone 0.000000 0.000000 0.000000 0.000000 0.000000 0.000000 10.000000 
Ping_Mechanism 0.000000 0.000000 0.000000 0.000000 0.000000 0.000000 10.000000 
BN_LookIK 0.000000 0.000000 0.000000 0.000000 0.000000 0.000000 10.000000 
bottomMouth 0.000000 0.000000 0.000000 0.000000 0.000000 0.000000 10.000000 
L_Mouth01 0.000000 0.000000 0.000000 0.000000 0.000000 0.000000 10.000000 
L_mouthFront 0.000000 0.000000 0.000000 0.000000 0.000000 0.000000 10.000000 
mouthGun 0.000000 0.000000 0.000000 0.000000 0.000000 0.000000 10.000000 
R_Mouth01 0.000000 0.000000 0.000000 0.000000 0.000000 0.000000 10.000000 
R_mouthFront 0.000000 0.000000 0.000000 0.000000 0.000000 0.000000 10.000000 
TopMouth 0.000000 0.000000 0.000000 0.000000 0.000000 0.000000 10.000000 
weapon_bone 0.000000 0.000000 0.000000 0.000000 0.000000 0.000000 10.000000 
#Beginning of Data. Separated by tabs
#Fr	Tx	Ty	Tz	Rx	Ry	Rz	SF
[Pinger_Root]
227 0.000000 0.000000 0.000000 -0.000075 -0.000000 -0.000020 0.000000
228 0.000000 0.000000 0.000000 -0.000075 -0.000000 -0.000020 0.000000
229 0.000000 0.000000 0.000000 -0.000075 -0.000000 -0.000020 0.000000
[Pelvis]
227 -49.743015 1301.973022 3960.149658 -86.266685 -80.465637 85.405754 4168.979980
228 -49.504028 1301.978516 3976.082520 -86.269432 -80.479065 85.303230 4184.116699
229 -49.050087 1301.982544 3989.888184 -86.213921 -80.592300 85.465363 4197.233887
[L_Hip]
227 5.766392 125.831482 872.656799 -121.855164 -74.309326 30.031721 881.701050
228 5.766392 125.831482 872.656799 -121.855164 -74.309326 30.031721 881.701050
229 5.766392 125.831482 872.656799 -122.716972 -74.354301 30.912107 881.701050
[R_Hip]
227 5.765438 125.836372 -872.654907 -62.004826 72.295715 26.004707 881.699829
228 5.765438 125.836372 -872.654907 -62.006908 72.295975 26.002958 881.699829
229 5.765438 125.836372 -872.654907 -61.344101 72.429955 26.621115 881.699829
[Rear_Leg01]
227 -192.298416 -925.602966 -0.001907 177.475754 -0.058208 -131.419388 945.367432
228 -192.298416 -925.602966 -0.001907 177.442642 0.046382 -131.535324 945.367432
229 -192.298416 -925.602966 -0.001907 177.524048 -0.158344 -131.531631 945.367432
[Spine1]
227 290.604584 5.007505 0.000477 0.032730 -0.002934 16.034433 290.647736
228 290.604584 5.007505 0.000477 0.034444 -0.003177 16.038929 290.647736
229 290.604584 5.007505 0.000477 0.036159 -0.003420 16.043423 290.647736
[L_Leg01]
227 761.932007 -0.002384 -0.069261 75.242760 -29.261295 -80.320488 761.932068
228 761.932007 -0.002384 -0.069261 75.291473 -28.609638 -80.602036 761.932068
229 761.932007 -0.002384 -0.069261 75.499939 -28.072151 -80.751930 761.932068
[L_Leg02]
227 1441.140503 -0.000954 -0.000715 2.520249 0.035087 -97.668640 1441.140503
228 1441.140503 -0.000954 -0.000715 2.408895 0.011853 -96.460373 1441.140503
229 1441.140503 -0.000954 -0.000715 2.297102 -0.009023 -95.252327 1441.140503
[L_Leg03]
227 1686.963989 -0.000715 -0.000954 -0.059906 0.028706 126.081276 1686.963989
228 1686.963989 -0.000715 -0.000954 -0.058511 0.027425 125.717842 1686.963989
229 1686.963989 -0.000715 -0.000954 -0.057108 0.026152 125.354378 1686.963989
[L_Foot]
227 3041.570068 -30.715107 11.297464 3.059134 25.598217 42.363941 3041.746094
228 3041.570068 -30.715107 11.297464 3.048810 25.625170 42.207073 3041.746094
229 3041.570068 -30.715107 11.297464 3.074115 25.627544 41.909809 3041.746094
[L_Toe1_01]
227 -188.216690 -224.732346 -21.137953 94.537514 -11.862918 -178.536743 293.899567
228 -188.216690 -224.732346 -21.137953 94.537834 -11.859113 -178.535995 293.899567
229 -188.216690 -224.732346 -21.137953 94.538155 -11.855310 -178.535248 293.899567
[L_Toe2_01]
227 200.746536 -219.926590 148.838394 -89.329681 -33.834244 -48.542564 332.896027
228 200.746536 -219.926590 148.838394 -89.330055 -33.828514 -48.545986 332.896027
229 200.746536 -219.926590 148.838394 -89.330437 -33.822769 -48.549381 332.896027
[L_Toe3_01]
227 188.832520 -219.859131 -191.078659 -97.078232 10.785587 -57.879009 347.140900
228 188.832520 -219.859131 -191.078659 -97.078224 10.785590 -57.879002 347.140900
229 188.832520 -219.859131 -191.078659 -97.078224 10.785587 -57.879002 347.140900
[planeAlignerLeft]
227 0.812531 -811.448792 -0.314951 0.000000 -90.000000 -90.001900 811.449280
228 0.812531 -811.448792 -0.314951 0.000000 -90.000000 -90.001900 811.449280
229 0.812531 -811.448792 -0.314951 0.000000 -90.000000 -90.001900 811.449280
[L_Toe1_02]
227 413.761139 0.000477 0.000000 0.000203 -25.410625 -0.000182 413.761139
228 413.761139 0.000477 0.000000 0.000203 -25.410625 -0.000182 413.761139
229 413.761139 0.000477 0.000000 0.000203 -25.410625 -0.000182 413.761139
[L_Toe1_03]
227 464.317322 0.000358 -0.000089 0.004342 58.635971 0.004342 464.317322
228 464.317322 0.000358 -0.000089 0.004342 58.635971 0.004342 464.317322
229 464.317322 0.000358 -0.000089 0.004342 58.635971 0.004342 464.317322
[L_Toe2_02]
227 342.235809 -0.000477 0.000238 0.001191 -70.147980 0.001191 342.235809
228 342.235809 -0.000477 0.000238 0.001191 -70.141510 0.001191 342.235809
229 342.235809 -0.000477 0.000238 0.001191 -70.135071 0.001191 342.235809
[L_Toe2_03]
227 420.210846 -0.000715 0.000000 0.013331 79.898392 0.013331 420.210846
228 420.210846 -0.000715 0.000000 0.013326 79.894852 0.013326 420.210846
229 420.210846 -0.000715 0.000000 0.013321 79.891403 0.013321 420.210846
[L_Toe3_02]
227 329.270111 0.000954 0.000000 0.001176 -83.095100 0.001176 329.270111
228 329.270111 0.000954 0.000000 0.001176 -83.088036 0.001176 329.270111
229 329.270111 0.000954 0.000000 0.001176 -83.080971 0.001176 329.270111
[L_Toe3_03]
227 439.137451 -0.001907 0.000954 179.990891 65.490250 179.998047 439.137451
228 439.137451 -0.001907 0.000954 179.990891 65.497475 179.998047 439.137451
229 439.137451 -0.001907 0.000954 179.990891 65.504715 179.998047 439.137451
[planeLockWeightLeft]
227 -0.000954 0.000238 -0.000305 -0.011826 -0.004376 0.005620 0.001029
228 -0.000954 0.000238 -0.000305 -0.011826 -0.004376 0.005620 0.001029
229 -0.000954 0.000238 -0.000305 -0.011826 -0.004376 0.005620 0.001029
[R_Leg01]
227 761.455627 -0.001907 -0.000358 112.047073 -14.020515 80.026917 761.455688
228 761.455627 -0.001907 -0.000358 112.068909 -13.510392 80.392365 761.455688
229 761.455627 -0.001907 -0.000358 112.407875 -12.631341 80.499527 761.455688
[R_Leg02]
227 1441.140625 0.000000 -0.000238 -0.697477 -0.087730 -105.665497 1441.140625
228 1441.140625 0.000000 -0.000238 -0.672819 -0.073564 -104.154686 1441.140625
229 1441.140625 0.000000 -0.000238 -0.647796 -0.060054 -102.643883 1441.140625
[R_Leg03]
227 1686.963989 0.000954 0.001431 0.083989 -0.044444 133.095428 1686.963989
228 1686.963989 0.000954 0.001431 0.082000 -0.043245 132.617355 1686.963989
229 1686.963989 0.000954 0.001431 0.080001 -0.042063 132.139359 1686.963989
[R_Foot]
227 3041.560059 -30.531288 -11.204481 15.718646 -25.994587 53.641327 3041.734131
228 3041.560059 -30.531288 -11.204481 15.544512 -26.002085 53.160744 3041.734131
229 3041.560059 -30.531288 -11.204481 15.447225 -26.013025 52.909092 3041.734131
[planeAlignerRight]
227 -0.635147 -812.270569 -0.364304 0.000000 -89.960434 -90.005180 812.270874
228 -0.635147 -812.270569 -0.364304 0.000000 -89.960434 -90.005180 812.270874
229 -0.635147 -812.270569 -0.364304 0.000000 -89.960434 -90.005180 812.270874
[R_Toe1_01]
227 -188.383347 -224.864899 21.052242 91.965347 -8.141243 -177.078751 294.101532
228 -188.383347 -224.864899 21.052242 92.090622 -8.317704 -178.327164 294.101532
229 -188.383347 -224.864899 21.052242 92.157814 -8.483624 -179.040024 294.101532
[R_Toe2_01]
227 200.637817 -220.002121 -148.787384 -100.537926 19.265047 -61.387310 332.857574
228 200.637817 -220.002121 -148.787384 -100.696953 19.492085 -61.374039 332.857574
229 200.637817 -220.002121 -148.787384 -100.698639 19.703650 -61.101521 332.857574
[R_Toe3_01]
227 188.606735 -220.092957 191.126343 -80.440079 -25.750132 -64.935059 347.192566
228 188.606735 -220.092957 191.126343 -80.675957 -25.724363 -64.564026 347.192566
229 188.606735 -220.092957 191.126343 -80.911575 -25.697210 -64.193184 347.192566
[planeLockWeightRight]
227 -0.000477 0.000000 0.000000 -0.011823 -0.004379 -0.000027 0.000477
228 -0.000477 0.000000 0.000000 -0.011823 -0.004379 -0.000027 0.000477
229 -0.000477 0.000000 0.000000 -0.011823 -0.004379 -0.000027 0.000477
[R_Toe1_02]
227 413.762085 0.000477 -0.000119 0.001394 -24.725298 0.001394 413.762085
228 413.762085 0.000477 -0.000119 0.001398 -24.173716 0.001398 413.762085
229 413.762085 0.000477 -0.000119 0.001399 -24.006861 0.001399 413.762085
[R_Toe1_03]
227 464.317810 0.000000 0.001088 0.006506 69.214310 0.006506 464.317810
228 464.317810 0.000000 0.001088 0.007727 72.528702 0.007727 464.317810
229 464.317810 0.000000 0.001088 0.008466 74.063591 0.008466 464.317810
[R_Toe2_02]
227 342.234741 -0.000954 0.000238 0.001191 -70.418541 0.001191 342.234741
228 342.234741 -0.000954 0.000238 0.001191 -70.470970 0.001191 342.234741
229 342.234741 -0.000954 0.000238 0.001191 -70.682503 0.001191 342.234741
[R_Toe2_03]
227 420.210846 0.000715 -0.000268 0.013988 80.374565 0.013988 420.210846
228 420.210846 0.000715 -0.000268 0.014546 80.744637 0.014546 420.210846
229 420.210846 0.000715 -0.000268 0.015151 81.114624 0.015151 420.210846
[R_Toe3_02]
227 329.270355 -0.000477 -0.000954 0.001181 -77.290970 0.001181 329.270355
228 329.270355 -0.000477 -0.000954 0.001180 -77.728523 0.001180 329.270355
229 329.270355 -0.000477 -0.000954 0.001180 -77.868248 0.001180 329.270355
[R_Toe3_03]
227 439.137939 0.000238 0.001431 -179.910324 89.278549 -179.906830 439.137939
228 439.137939 0.000238 0.001431 -179.968918 87.993477 -179.965424 439.137939
229 439.137939 0.000238 0.001431 -179.974777 87.558556 -179.971283 439.137939
[Rear_Leg02]
227 1162.777710 -0.029802 0.005960 -2.855114 7.709757 -90.023666 1162.777710
228 1162.777710 -0.029802 0.005960 -2.774053 7.738593 -89.447517 1162.777710
229 1162.777710 -0.029802 0.005960 -2.721667 7.756381 -89.062416 1162.777710
[Rear_Leg03]
227 607.192505 -0.013351 -0.073195 0.010504 -0.005081 67.978081 607.192505
228 607.192505 -0.013351 -0.073195 0.010513 -0.005062 67.780006 607.192505
229 607.192505 -0.013351 -0.073195 0.010522 -0.005044 67.581940 607.192505
[Rear_Leg04]
227 995.874512 -0.020504 -0.011921 -0.039955 -0.019307 65.781082 995.874573
228 995.874512 -0.020504 -0.011921 -0.039876 -0.019465 65.323433 995.874573
229 995.874512 -0.020504 -0.011921 -0.039826 -0.019567 65.030182 995.874573
[Rear_Foot]
227 3096.176270 -0.067472 -0.041425 88.439247 82.623505 -89.403885 3096.176270
228 3096.176270 -0.067472 -0.041425 88.212509 82.615707 -89.690277 3096.176270
229 3096.176270 -0.067472 -0.041425 87.986366 82.607765 -89.976196 3096.176270
[planeAlignerCenter]
227 0.350077 0.966311 -838.790894 0.000009 0.000003 -179.999985 838.791565
228 0.350077 0.966311 -838.790894 0.000009 0.000003 -179.999985 838.791565
229 0.350077 0.966311 -838.790894 0.000009 0.000003 -179.999985 838.791565
[Rear_Toe1_01]
227 0.653352 83.966492 -371.173737 5.358758 30.429033 103.546585 380.553192
228 0.653352 83.966492 -371.173737 5.355823 30.425406 103.537704 380.553192
229 0.653352 83.966492 -371.173737 5.352887 30.421772 103.528824 380.553192
[Rear_Toe2_01]
227 178.200760 -294.826019 -362.060547 -8.738215 22.936935 -73.379066 499.765686
228 178.200760 -294.826019 -362.060547 -8.737448 22.927235 -73.355896 499.765686
229 178.200760 -294.826019 -362.060547 -8.736684 22.917532 -73.332710 499.765686
[Rear_Toe3_01]
227 -153.359680 -308.780914 -362.060852 3.776988 19.494358 -119.571602 499.952881
228 -153.359680 -308.780914 -362.060852 3.776988 19.494358 -119.571602 499.952881
229 -153.359680 -308.780914 -362.060852 3.767123 20.042164 -119.575439 499.952881
[planeLockWeightCenter]
227 -0.000062 0.000238 0.000000 -0.011814 -0.004373 -0.000015 0.000246
228 -0.000062 0.000238 0.000000 -0.011814 -0.004373 -0.000015 0.000246
229 -0.000062 0.000238 0.000000 -0.011814 -0.004373 -0.000015 0.000246
[Rear_Toe1_02]
227 379.707825 0.194073 0.000477 -0.000341 -33.019588 0.006990 379.707855
228 379.707825 0.194073 0.000477 -0.000341 -33.025139 0.006990 379.707855
229 379.707825 0.194073 0.000477 -0.000341 -33.030701 0.006990 379.707855
[Rear_Toe1_03]
227 500.129700 0.165701 0.000119 -0.004071 60.580078 -0.000456 500.129761
228 500.129700 0.165701 0.000119 -0.004071 60.579536 -0.000456 500.129761
229 500.129700 0.165701 0.000119 -0.004089 60.825958 -0.000475 500.129761
[Rear_Toe2_02]
227 340.494507 0.000238 -0.000954 0.001179 -79.097176 0.001179 340.494507
228 340.494507 0.000238 -0.000954 0.001179 -79.094398 0.001179 340.494507
229 340.494507 0.000238 -0.000954 0.001178 -79.685730 0.001178 340.494507
[Rear_Toe2_03]
227 433.103577 0.000000 0.000238 0.031723 85.759560 0.031723 433.103546
228 433.103577 0.000000 0.000238 0.031673 85.752869 0.031673 433.103546
229 433.103577 0.000000 0.000238 0.044246 86.959923 0.044246 433.103546
[Rear_Toe3_02]
227 340.494141 -0.000358 -0.000477 -0.002471 -50.098091 -0.002471 340.494171
228 340.494141 -0.000358 -0.000477 -0.002471 -50.096046 -0.002471 340.494171
229 340.494141 -0.000358 -0.000477 -0.002458 -51.838226 -0.002458 340.494171
[Rear_Toe3_03]
227 433.103577 0.001431 -0.000238 0.000412 44.448811 -0.003381 433.103546
228 433.103577 0.001431 -0.000238 0.000412 44.446823 -0.003381 433.103546
229 433.103577 0.001431 -0.000238 0.000336 46.376801 -0.003430 433.103546
[Back_Bone]
227 1312.175781 -701.934692 0.000954 0.026752 0.001339 -85.677536 1488.125488
228 1312.175781 -701.934692 0.000954 0.027182 0.001323 -85.678673 1488.125488
229 1312.175781 -701.934692 0.000954 0.027612 0.001307 -85.679825 1488.125488
[Head]
227 1406.159424 809.709290 0.001431 0.001938 0.001324 21.303236 1622.625488
228 1406.159424 809.709290 0.001431 0.001938 0.001324 21.304913 1622.625488
229 1406.159424 809.709290 0.001431 0.001938 0.001324 21.306587 1622.625488
[Motor_Bone]
227 1158.364380 -417.834747 0.000477 -0.095385 0.076104 -105.915703 1231.419434
228 1158.364380 -417.834747 0.000477 -0.095385 0.076104 -105.915703 1231.419434
229 1158.364380 -417.834747 0.000477 -0.095385 0.076104 -105.915703 1231.419434
[Ping_Mechanism]
227 1248.994385 -447.654358 0.009101 0.000103 -0.000053 82.120995 1326.793579
228 1248.968750 -447.644623 0.009662 0.000103 -0.000053 82.120995 1326.766235
229 1248.943115 -447.634888 0.010223 0.000103 -0.000053 82.120995 1326.738770
[BN_LookIK]
227 193.241119 1380.371704 -0.002861 0.000000 89.965736 -31.038179 1393.832153
228 193.241119 1380.371704 -0.002861 0.000000 89.965736 -31.038179 1393.832153
229 193.241119 1380.371704 -0.002861 0.000000 89.965736 -31.038179 1393.832153
[bottomMouth]
227 -435.092926 615.759399 -0.000954 -0.000022 0.000016 73.527184 753.966492
228 -435.092926 615.759399 -0.000954 -0.000022 0.000016 73.527184 753.966492
229 -435.092926 615.759399 -0.000954 -0.000022 0.000016 73.527184 753.966492
[L_Mouth01]
227 554.440979 7.658243 838.222046 150.204178 23.759130 109.605339 1005.027161
228 554.440979 7.658243 838.222046 150.204178 23.759130 109.605339 1005.027161
229 554.440979 7.658243 838.222046 150.204178 23.759130 109.605339 1005.027161
[L_mouthFront]
227 551.629089 934.514771 339.150421 0.000081 2.804060 79.119301 1136.941284
228 551.629089 934.514771 339.150421 0.000081 2.804060 79.119301 1136.941284
229 551.629089 934.514771 339.150421 0.000081 2.804060 79.119301 1136.941284
[mouthGun]
227 55.332661 1627.420898 0.000000 0.000023 0.000009 -11.038128 1628.361328
228 55.332661 1627.420898 0.000000 0.000023 0.000009 -11.038128 1628.361328
229 55.332661 1627.420898 0.000000 0.000023 0.000009 -11.038128 1628.361328
[R_Mouth01]
227 554.442383 7.659197 -838.223938 29.795891 -23.759109 109.605331 1005.029541
228 554.442383 7.659197 -838.223938 29.795891 -23.759109 109.605331 1005.029541
229 554.442383 7.659197 -838.223938 29.795891 -23.759109 109.605331 1005.029541
[R_mouthFront]
227 551.629089 934.514282 -339.151367 0.000029 -2.803930 79.119133 1136.941162
228 551.629089 934.514282 -339.151367 0.000029 -2.803930 79.119133 1136.941162
229 551.629089 934.514282 -339.151367 0.000029 -2.803930 79.119133 1136.941162
[TopMouth]
227 461.269867 -56.106091 -0.008583 -0.000059 -0.000268 92.025169 464.669525
228 461.269867 -56.106091 -0.008583 -0.000059 -0.000268 92.025169 464.669525
229 461.269867 -56.106091 -0.008583 -0.000059 -0.000268 92.025169 464.669525
[weapon_bone]
227 -987.239868 1448.372803 0.001431 0.000000 89.965736 -31.038221 1752.833740
228 -987.239868 1448.372803 0.001431 0.000000 89.965736 -31.038221 1752.833740
229 -987.239868 1448.372803 0.001431 0.000000 89.965736 -31.038221 1752.833740
